<svg height="512pt" viewBox="-40 0 512 512" width="512pt" xmlns="http://www.w3.org/2000/svg"><path d="m431.667969 364.480469v-188.8125c0-3.980469-1.578125-7.796875-4.394531-10.609375l-160.667969-160.664063c-2.8125-2.816406-6.628907-4.394531-10.605469-4.394531h-200.832031c-30.421875 0-55.167969 24.746094-55.167969 55.167969v401.664062c0 30.421875 24.746094 55.167969 55.167969 55.167969h321.332031c30.421875 0 55.167969-24.746094 55.167969-55.167969zm-160.667969-313.265625 109.453125 109.453125h-84.285156c-13.878907 0-25.167969-11.289063-25.167969-25.167969zm-215.832031-21.214844h185.832031v105.5c0 30.417969 24.746094 55.167969 55.167969 55.167969h105.5v137.605469l-94.894531-94.894532c-2.8125-2.8125-6.628907-4.394531-10.605469-4.394531-3.980469 0-7.792969 1.582031-10.605469 4.394531l-93.828125 93.824219-69.726563-69.726563c-2.8125-2.8125-6.628906-4.394531-10.605468-4.394531-3.980469 0-7.796875 1.582031-10.609375 4.394531l-70.792969 70.796876v-273.105469c0-13.878907 11.289062-25.167969 25.167969-25.167969zm321.332031 452h-321.332031c-13.878907 0-25.167969-11.289062-25.167969-25.167969v-86.132812l81.402344-81.402344 69.726562 69.726563c2.8125 2.816406 6.628906 4.394531 10.605469 4.394531 3.980469 0 7.792969-1.578125 10.609375-4.394531l93.824219-93.828126 105.5 105.5v86.136719c0 13.878907-11.289063 25.167969-25.167969 25.167969zm0 0"/><path d="m135.5 202.679688c30.417969 0 55.167969-24.746094 55.167969-55.164063 0-30.421875-24.75-55.167969-55.167969-55.167969s-55.164062 24.746094-55.164062 55.167969c0 30.417969 24.746093 55.164063 55.164062 55.164063zm0-80.332032c13.878906 0 25.167969 11.289063 25.167969 25.167969 0 13.875-11.289063 25.164063-25.167969 25.164063-13.875 0-25.164062-11.289063-25.164062-25.164063 0-13.878906 11.289062-25.167969 25.164062-25.167969zm0 0"/></svg>